<?xml version="1.0" encoding="utf-8"?>
<!-- Generator: Adobe Illustrator 26.0.2, SVG Export Plug-In . SVG Version: 6.00 Build 0)  -->
<svg version="1.1" id="Ebene_1" xmlns="http://www.w3.org/2000/svg" xmlns:xlink="http://www.w3.org/1999/xlink" x="0px" y="0px"
	 viewBox="0 0 68 68" style="enable-background:new 0 0 68 68;" xml:space="preserve">
<style type="text/css">
	.st0{fill:#005282;}
</style>
<path id="Icon" class="st0" d="M59.3,34c0,6.9-0.2,13.8-0.7,20.8c-0.2,2.7-1.3,3.7-3.9,3.9c-6.9,0.5-13.8,0.7-20.8,0.7
	s-13.8-0.2-20.8-0.7c-2.7-0.2-3.7-1.3-3.9-3.9C8.7,47.8,8.5,40.9,8.5,34s0.2-13.8,0.7-20.8c0.2-2.7,1.3-3.7,3.9-3.9
	C20.1,8.8,27,8.6,33.9,8.6s13.8,0.2,20.8,0.7c2.7,0.2,3.7,1.3,3.9,3.9C59,20.2,59.3,27.1,59.3,34 M67.7,34c0-8.4-0.3-16.7-1.1-25
	c-0.3-4-3.6-7.3-7.7-7.7c-8.3-0.7-16.7-1.1-25-1.1c-8.4,0-16.7,0.3-25,1.1C5,1.7,1.7,5,1.3,9c-0.7,8.3-1.1,16.7-1.1,25
	s0.4,16.7,1.1,25c0.3,4,3.6,7.3,7.7,7.7c8.3,0.7,16.7,1.1,25,1.1c8.4,0,16.7-0.4,25-1.1c4-0.3,7.3-3.6,7.7-7.7
	C67.4,50.7,67.7,42.4,67.7,34"/>
</svg>
