<?xml version="1.0" encoding="utf-8"?>
<!-- Generator: Adobe Illustrator 26.0.2, SVG Export Plug-In . SVG Version: 6.00 Build 0)  -->
<svg version="1.1" id="Ebene_1" xmlns="http://www.w3.org/2000/svg" xmlns:xlink="http://www.w3.org/1999/xlink" x="0px" y="0px"
	 viewBox="0 0 402.5 102" style="enable-background:new 0 0 402.5 102;" xml:space="preserve">
<style type="text/css">
	.st0{fill:#FFFFFF;}
</style>
<g id="HomematicIP">
	<path id="Button" class="st0" d="M394.9,64.7c0,3.8-0.1,7.6-0.4,11.4c-0.1,1.5-0.7,2-2.2,2.2c-3.8,0.3-7.6,0.4-11.4,0.4
		s-7.6-0.1-11.4-0.4c-1.5-0.1-2-0.7-2.2-2.2c-0.3-3.8-0.4-7.6-0.4-11.4c0-3.8,0.1-7.6,0.4-11.4c0.1-1.5,0.7-2,2.2-2.2
		c3.8-0.3,7.6-0.4,11.4-0.4s7.6,0.1,11.4,0.4c1.5,0.1,2,0.7,2.2,2.2C394.8,57.1,394.9,60.9,394.9,64.7 M399.6,64.7
		c0-4.6-0.2-9.2-0.6-13.7c-0.2-2.2-2-4-4.2-4.2c-4.5-0.4-9.2-0.6-13.7-0.6c-4.6,0-9.2,0.2-13.7,0.6c-2.2,0.2-4,2-4.2,4.2
		c-0.4,4.5-0.6,9.2-0.6,13.7s0.2,9.2,0.6,13.7c0.2,2.2,2,4,4.2,4.2c4.5,0.4,9.2,0.6,13.7,0.6c4.6,0,9.2-0.2,13.7-0.6
		c2.2-0.2,4-2,4.2-4.2C399.4,73.9,399.6,69.3,399.6,64.7"/>
	<path id="IP" class="st0" d="M382.4,64.7V59h2.9c1.7,0,2.8,1.1,2.8,2.8c0,1.7-1,2.9-2.9,2.9L382.4,64.7L382.4,64.7z M379.3,73.1
		h3.1v-5.8h3.4c3.1,0,5.4-2.3,5.4-5.5c0-3.3-2.2-5.4-5.4-5.4h-6.5V73.1z M372.9,73.1h3.1V56.4h-3.1V73.1z"/>
	<path id="homematic" class="st0" d="M323.2,84.1c0,8.3,6.1,15.1,15.6,15.1c7.8,0,11.8-4.7,11.8-4.7l-2.7-5.1c0,0-3.6,3.7-8.5,3.7
		c-5.5,0-9-4.2-9-9c0-4.9,3.4-8.9,8.7-8.9c4.5,0,7.5,3.1,7.5,3.1l3.1-4.9c0,0-3.6-4.3-11.1-4.3C329.3,69,323.2,75.9,323.2,84.1
		 M309.1,98.5h7.2V69.7h-7.2V98.5z M309.1,64.8h7.1v-6.4h-7.1V64.8z M287.9,88c0,9.7,8,10.8,12,10.8c1.3,0,2.2-0.2,2.2-0.2v-6.2
		c0,0-0.5,0.1-1.3,0.1c-2,0-5.7-0.7-5.7-5.4V75.9h6.5v-5.7h-6.5v-8.3h-7v8.3h-3.9v5.7h3.7L287.9,88L287.9,88z M260.3,89.9
		c0-4,5.9-4.5,9.6-4.5h1.2v0.7c0,3.5-2.7,7.6-6.5,7.6C261.7,93.6,260.3,91.8,260.3,89.9 M253.1,90.2c0,5.8,4.6,9,9.8,9
		c6.5,0,8.8-5.1,8.7-5.1h0.1c0,0-0.1,0.9-0.1,2v2.4h6.6v-18c0-7.3-4.4-11.5-12-11.5c-6.8,0-11.3,3.6-11.3,3.6l2.7,5.1
		c0,0,3.8-2.7,7.9-2.7c3.1,0,5.5,1.3,5.5,5.1v0.4h-0.9C265.5,80.5,253.1,81.1,253.1,90.2 M201.7,98.5h7.2V85.9
		c0-1.3,0.1-2.6,0.3-3.7c0.9-3.7,3.3-6.6,7.1-6.6c3.4,0,3.9,2.6,3.9,5.8v17.1h7.2V85.9c0-1.3,0.1-2.6,0.3-3.7
		c0.9-3.6,3.3-6.5,6.9-6.5c3.3,0,4,2.5,4,5.8v17.1h7.1V80c0-7.6-3.4-11-9.4-11c-4.5,0-8.2,2.8-9.9,5.9h-0.1c-1.2-3.9-4-5.9-8.4-5.9
		c-4.5,0-8,3.1-9.4,6h-0.1c0,0,0.1-0.9,0.1-2v-3.3h-6.9L201.7,98.5L201.7,98.5z M172.2,81.3c0.9-5.7,5-8.7,9.8-8.7
		c4.3,0,7.9,2.7,8,8.7H172.2z M168.1,84.4c0,8.7,6.4,14.9,14.9,14.9c6.4,0,10.5-4,10.5-4l-1.7-2.9c0,0-3.4,3.4-8.6,3.4
		c-5.9,0-10.8-4-11-11.3h21.8c0,0,0.1-1.3,0.1-2c0-7.1-4-13.1-11.8-13.1C174.4,69.5,168.1,75,168.1,84.4 M118.4,98.5h3.8V85.1
		c0-1.3,0.1-2.6,0.4-3.8c1.2-4.4,4.7-8.3,9.3-8.3c5.4,0,6,4.2,6,8.5v17.1h3.8V85.1c0-1.5,0.1-2.9,0.5-4.1c1-4.2,4.6-8,9-8
		c5.2,0,6.2,3.8,6.2,8.5v17.1h3.8V80.4c0-7-2.6-11-9.4-11c-4.8,0-8.9,3.3-10.4,7.1h-0.1c-0.9-4.7-3.6-7.1-8.8-7.1
		c-4.4,0-8.9,3.3-10.3,7.2h-0.1c0,0,0.1-1,0.1-2.3V70h-3.8v28.5H118.4z M85.1,84.2c0-6.4,5-11.3,11.1-11.3c6.1,0,11.1,4.8,11.1,11.3
		c0,6.6-5,11.6-11.1,11.6C90.1,95.7,85.1,90.8,85.1,84.2 M81.2,84.2c0,8.6,6.7,15,15,15s15-6.4,15-15c0-8.4-6.7-14.7-15-14.7
		S81.2,75.7,81.2,84.2 M49.7,98.5h3.8V85c0-1.3,0.1-2.7,0.5-3.8c1.3-4.7,5.5-8,10.3-8c5.5,0,6.2,4,6.2,8.4v17h3.8V80.5
		c0-7-2.5-11-9.5-11c-6.4,0-10.2,4.4-11.3,7.1h-0.1c0,0,0.1-1,0.1-2.3V56.8h-3.8L49.7,98.5L49.7,98.5z"/>
</g>
<g id="HomeMatic">
	<path id="HomeMatic_00000079486231696433625560000002106303892110140836_" class="st0" d="M26.8,41.3V23.2h-20v18.1H3V2.7h3.9v17
		h20v-17h3.9v38.7H26.8z M36.9,27.2c0-8.4,6.8-15.2,14.9-15.2c8.3,0,15,7,15,15c0,8.3-6.9,15-15,15C43.7,42,36.9,35.2,36.9,27.2z
		 M63.1,26.9c0-6.1-5-11.2-11.3-11.2c-6.2,0-11.1,5.3-11.1,11.6c0,6.1,4.9,11.2,11.1,11.2C58.2,38.4,63.1,33.2,63.1,26.9z M111,41.3
		V24.6c0-5.4-3.4-8.9-7.8-8.9c-5,0-7.8,3.5-7.8,9v16.7h-3.7V24.6c0-5.6-3.5-9-7.8-9c-5.1,0-7.8,3.4-7.8,9v16.7h-3.7V12.8H76v3.3
		c1.7-2.7,4.7-4,7.8-4c4.2,0,7.6,1.9,9.7,5.5C95.8,14,99,12,103.2,12c6.4,0,11.5,5.4,11.5,11.6v17.7H111z M124.1,28.4
		c0.3,5.7,5.3,10,10.8,10c4.4,0,8.7-2.2,10.3-6.4l4.1,0c-2.2,6.2-7.9,10-14.1,10c-8.1,0-14.9-6.6-14.9-14.9c0-8.3,6.8-15,14.8-15
		c8.6,0,14.7,7.3,14.9,15.2c0,0.4,0,0.8,0,1.1L124.1,28.4z M146.3,24.9c-1.1-5.4-5.9-9.2-11.1-9.2c-5.3,0-10.1,3.3-11.1,9.2H146.3z
		 M155.6,41.3V2.7h9.9L175.8,32l10.3-29.3h9.9v38.6h-7.1v-29l-10,29h-6.1l-10-29v29H155.6z M231.4,12.2v29H225v-3.5
		c-0.5,0.7-1.2,1.2-2,1.8c-0.8,0.5-1.6,1-2.5,1.4c-0.9,0.4-1.8,0.7-2.8,0.9c-1,0.2-1.9,0.3-2.8,0.3c-2,0-3.9-0.4-5.6-1.2
		c-1.7-0.8-3.2-1.9-4.4-3.3c-1.2-1.4-2.2-3-2.9-5c-0.7-1.9-1.1-4-1.1-6.2c0-2.2,0.4-4.2,1.1-6.1c0.7-1.9,1.7-3.5,3-4.9
		c1.3-1.4,2.8-2.4,4.6-3.2c1.8-0.8,3.7-1.2,5.7-1.2c1.9,0,3.7,0.4,5.4,1.3c1.8,0.9,3.6,2.3,4.3,3.8v-4.2H231.4z M216.3,35.6
		c1.3,0,2.4-0.2,3.5-0.7c1.1-0.4,2-1.1,2.7-1.8c0.8-0.8,1.4-1.7,1.8-2.8c0.4-1.1,0.6-2.3,0.6-3.6c0-1.2-0.2-2.4-0.6-3.4
		c-0.4-1.1-1-2-1.8-2.8c-0.8-0.8-1.7-1.4-2.7-1.8c-1.1-0.4-2.2-0.6-3.5-0.6c-1.3,0-2.4,0.2-3.5,0.7c-1.1,0.4-2,1.1-2.7,1.9
		c-0.8,0.8-1.4,1.8-1.8,2.9c-0.5,1.1-0.7,2.3-0.7,3.6c0,1.2,0.2,2.3,0.7,3.4c0.4,1,1.1,2,1.8,2.7c0.8,0.8,1.7,1.4,2.8,1.8
		C214,35.4,215.1,35.6,216.3,35.6z M237.6,41.3V18.7h-3.4v-6.3h3.4V2.7h7v9.7h4.2v6.3h-4.2v22.6H237.6z M252.4,9V2.7h7V9H252.4z
		 M252.4,41.3v-29h7v29H252.4z M279.2,35.6c2.6,0,4.8-1,6.5-3.7h7.8c-0.7,1.9-1.5,3.5-2.5,4.7c-1,1.2-2.2,2.3-3.6,3.2
		c-1.2,0.8-2.6,1.4-4.1,1.8c-1.5,0.4-2.9,0.6-4.3,0.6c-2.1,0-4.1-0.4-6-1.2c-1.9-0.8-3.5-1.9-4.9-3.4c-1.4-1.4-2.5-3.1-3.3-5
		c-0.8-1.9-1.2-3.9-1.2-6.1c0-2.1,0.4-4.1,1.2-6c0.8-1.9,1.9-3.5,3.3-4.9c1.4-1.4,3-2.5,4.9-3.3c1.9-0.8,3.8-1.2,6-1.2
		c2.3,0,4.5,0.5,6.6,1.4c2.1,1,3.8,2.3,5.3,4.1c0.3,0.4,0.6,0.7,0.9,1.1c0.2,0.3,0.5,0.7,0.7,1.1c0.2,0.4,0.4,0.8,0.6,1.3
		c0.2,0.5,0.4,1,0.6,1.6h-7.8c-0.9-1.5-1.7-2.3-2.7-3c-1-0.7-2.5-1-4-1c-1.2,0-2.4,0.2-3.4,0.7c-1,0.4-2,1.2-2.7,2
		c-0.7,0.8-1.2,1.4-1.7,2.6c-0.4,1.1-0.6,2.4-0.6,3.7c0,1.3,0.2,2.5,0.6,3.6c0.4,1.1,1,1.8,1.7,2.6c0.8,0.8,1.8,1.4,2.8,1.9
		C276.8,35.5,277.9,35.6,279.2,35.6z"/>
</g>
</svg>
